<?xml version="1.0" standalone="no"?>
<!DOCTYPE svg PUBLIC "-//W3C//DTD SVG 20010904//EN"
 "http://www.w3.org/TR/2001/REC-SVG-20010904/DTD/svg10.dtd">
<svg version="1.0" xmlns="http://www.w3.org/2000/svg"
 width="512.000000pt" height="512.000000pt" viewBox="0 0 512.000000 512.000000"
 preserveAspectRatio="xMidYMid meet">
<metadata>
Created by potrace 1.14, written by Peter Selinger 2001-2017
</metadata>
<g transform="translate(0.000000,512.000000) scale(0.100000,-0.100000)"
fill="#000000" stroke="none">
<path d="M2238 5094 c-433 -56 -863 -231 -1213 -495 -468 -353 -807 -867 -944
-1431 -57 -234 -66 -318 -66 -608 0 -290 9 -374 66 -608 155 -637 558 -1195
1124 -1556 216 -138 552 -276 806 -330 340 -74 727 -76 1067 -7 658 135 1241
536 1622 1117 82 125 201 363 255 508 48 130 108 370 131 521 26 168 26 542 0
710 -23 151 -83 391 -131 521 -119 323 -320 643 -560 893 -413 429 -940 693
-1535 767 -143 18 -477 17 -622 -2z m1452 -1084 c193 -17 375 -47 430 -71 61
-26 117 -85 126 -134 10 -54 -2 -132 -27 -172 -14 -23 -40 -44 -73 -59 -62
-29 -117 -30 -401 -9 -237 18 -767 36 -777 27 -8 -9 -130 -648 -202 -1062 -68
-388 -149 -946 -177 -1220 -11 -113 -25 -221 -29 -240 -13 -49 -59 -101 -116
-130 -43 -22 -62 -25 -154 -25 -96 0 -109 2 -150 27 -47 27 -83 78 -95 135 -8
41 8 213 45 463 35 239 155 1003 176 1120 22 122 174 891 181 914 5 18 0 19
-133 13 -347 -16 -592 -75 -708 -171 -23 -19 -55 -58 -71 -87 -53 -99 -44
-253 22 -368 34 -59 29 -128 -13 -172 -65 -69 -170 -107 -245 -90 -56 13 -119
76 -164 165 -89 178 -87 435 5 623 154 312 551 470 1325 528 213 16 1028 13
1225 -5z"/>
</g>
</svg>
